<svg xmlns="http://www.w3.org/2000/svg" width="292" height="80" fill="none" xmlns:v="https://vecta.io/nano"><g clip-path="url(#A)"><g clip-path="url(#B)" fill="#5865f2"><path d="M61.796 16.494a59.41 59.41 0 0 0-15.05-4.729 44.13 44.13 0 0 0-1.928 4.003c-5.611-.844-11.171-.844-16.68 0a42.79 42.79 0 0 0-1.951-4.003 59.22 59.22 0 0 0-15.062 4.741C1.601 30.899-.981 44.934.31 58.771c6.317 4.718 12.44 7.583 18.458 9.459a45.88 45.88 0 0 0 3.953-6.511 38.81 38.81 0 0 1-6.225-3.03c.522-.387 1.033-.791 1.526-1.207 12.003 5.614 25.045 5.614 36.905 0a37.52 37.52 0 0 0 1.526 1.207c-1.974 1.19-4.062 2.209-6.237 3.036 1.142 2.285 2.462 4.466 3.953 6.511 6.025-1.875 12.153-4.741 18.47-9.465 1.515-16.04-2.588-29.946-10.844-42.277zM24.357 50.262c-3.603 0-6.558-3.364-6.558-7.46s2.892-7.466 6.558-7.466 6.621 3.364 6.558 7.466c.006 4.096-2.892 7.46-6.558 7.46zm24.236 0c-3.603 0-6.558-3.364-6.558-7.46s2.892-7.466 6.558-7.466 6.621 3.364 6.558 7.466c0 4.096-2.892 7.46-6.558 7.46zm49.436-24.091h15.664c3.776 0 6.966.604 9.583 1.805 2.61 1.201 4.567 2.877 5.864 5.022s1.95 4.6 1.95 7.367c0 2.708-.677 5.163-2.031 7.361-1.354 2.204-3.414 3.944-6.185 5.227s-6.203 1.928-10.305 1.928h-14.54v-28.71zm14.379 21.414c2.542 0 4.499-.651 5.864-1.946 1.366-1.301 2.049-3.071 2.049-5.315 0-2.081-.609-3.739-1.825-4.981s-3.058-1.869-5.52-1.869h-4.9v14.112h4.332zm42.133 7.261c-2.169-.574-4.126-1.406-5.864-2.502v-6.81c1.314 1.037 3.075 1.893 5.284 2.567 2.209.668 4.344 1.002 6.409 1.002.964 0 1.693-.129 2.186-.387s.741-.568.741-.926c0-.41-.132-.75-.402-1.026s-.792-.504-1.566-.697l-4.82-1.108c-2.76-.656-4.717-1.565-5.881-2.731-1.165-1.16-1.745-2.684-1.745-4.571 0-1.588.505-2.965 1.527-4.143 1.015-1.178 2.461-2.086 4.337-2.725 1.877-.645 4.068-.967 6.587-.967 2.249 0 4.309.246 6.186.738s3.425 1.119 4.659 1.887v6.441c-1.263-.768-2.709-1.371-4.361-1.828-1.647-.451-3.339-.674-5.084-.674-2.519 0-3.775.44-3.775 1.313 0 .41.195.715.585.92s1.107.416 2.146.639l4.016.738c2.623.463 4.579 1.278 5.864 2.438s1.928 2.877 1.928 5.151c0 2.491-1.061 4.466-3.19 5.931s-5.147 2.198-9.06 2.198a26.36 26.36 0 0 1-6.707-.867zm28.437-.862c-2.3-1.149-4.039-2.707-5.198-4.677s-1.744-4.184-1.744-6.646.602-4.665 1.807-6.605 2.972-3.464 5.302-4.571 5.112-1.658 8.354-1.658c4.016 0 7.35.861 10.001 2.584v7.507c-.935-.656-2.026-1.19-3.271-1.6s-2.576-.615-3.999-.615c-2.49 0-4.435.463-5.841 1.395s-2.111 2.145-2.111 3.651c0 1.477.682 2.684 2.048 3.634 1.366.944 3.345 1.418 5.944 1.418a13.65 13.65 0 0 0 3.959-.592c1.297-.398 2.416-.885 3.351-1.459v7.261c-2.943 1.805-6.357 2.707-10.242 2.707-3.27-.012-6.059-.586-8.36-1.735zm28.54 0c-2.318-1.149-4.085-2.719-5.302-4.718s-1.83-4.225-1.83-6.687.608-4.659 1.83-6.587 2.978-3.44 5.285-4.536c2.3-1.096 5.049-1.641 8.233-1.641s5.933.545 8.234 1.641 4.057 2.596 5.262 4.512 1.807 4.114 1.807 6.605c0 2.461-.602 4.688-1.807 6.687s-2.967 3.569-5.285 4.718-5.055 1.723-8.216 1.723-5.899-.569-8.211-1.717zm12.204-7.279c.976-.996 1.469-2.315 1.469-3.956s-.488-2.948-1.469-3.915c-.975-.973-2.307-1.459-3.993-1.459-1.716 0-3.059.486-4.04 1.459-.975.973-1.463 2.274-1.463 3.915s.488 2.959 1.463 3.956 2.324 1.5 4.04 1.5c1.686-.006 3.018-.504 3.993-1.5zM259.17 31.34v8.86c-1.021-.686-2.341-1.026-3.976-1.026-2.141 0-3.793.662-4.941 1.987s-1.727 3.387-1.727 6.177v7.548h-9.84V30.888h9.64v7.63c.533-2.79 1.4-4.847 2.593-6.177 1.188-1.324 2.725-1.987 4.596-1.987 1.417 0 2.634.328 3.655.985zm32.694-5.99v29.536h-9.841v-5.374c-.832 2.022-2.094 3.563-3.792 4.618-1.699 1.049-3.799 1.576-6.289 1.576-2.226 0-4.165-.551-5.824-1.658s-2.937-2.625-3.838-4.553c-.895-1.928-1.349-4.108-1.349-6.546-.028-2.514.448-4.77 1.429-6.769s2.358-3.557 4.137-4.677 3.81-1.682 6.088-1.682c4.688 0 7.832 2.08 9.438 6.235V25.35h9.841zm-11.309 21.191c1.004-.996 1.503-2.291 1.503-3.874 0-1.53-.488-2.778-1.463-3.733s-2.313-1.436-3.994-1.436c-1.658 0-2.983.486-3.976 1.459s-1.486 2.233-1.486 3.792.493 2.831 1.486 3.815 2.301 1.477 3.936 1.477c1.658-.006 2.989-.504 3.994-1.5zM139.382 33.443c2.709 0 4.906-2.015 4.906-4.501s-2.197-4.501-4.906-4.501-4.906 2.015-4.906 4.501 2.196 4.501 4.906 4.501zm-4.91 3.101c3.006 1.324 6.736 1.383 9.811 0v18.472h-9.811V36.544z"/></g></g><defs><clipPath id="A"><path fill="#fff" transform="translate(0 11.765)" d="M0 0h292v56.471H0z"/></clipPath><clipPath id="B"><path fill="#fff" transform="translate(0 11.765)" d="M0 0h292v56.471H0z"/></clipPath></defs></svg>