<svg xmlns="http://www.w3.org/2000/svg" width="400" height="114.762" viewBox="0 0 400 NaN" xmlns:v="https://vecta.io/nano"><path d="M48.052 19.788C2.625 28.013-4.3 90.741 38.248 108.597c5.75 2.414 6.238 2.085 6.41-4.322l.134-4.989-4.658-.002c-6.672-.001-9.565-1.756-11.774-7.141-.433-1.056-2.067-3.113-3.664-4.614-1.586-1.49-2.743-2.937-2.571-3.215.901-1.456 6.037.352 7.906 2.784 4.911 6.389 7.242 7.532 12.612 6.18 1.861-.469 2.169-.738 2.586-2.262.26-.952.884-2.397 1.385-3.212l.911-1.482-3.672-.723c-11.426-2.251-17.186-9.533-17.186-21.726 0-4.461.914-7.776 3.001-10.876 1.175-1.746 1.477-2.604 1.23-3.489-.904-3.244-.041-10.615 1.304-11.131 1.238-.476 4.991.648 8.824 2.643l3.707 1.928 3.467-.612c4.337-.767 13.579-.688 17.018.144l2.598.628 4.544-2.252c2.5-1.238 5.442-2.383 6.539-2.543l1.995-.292.743 2.505c.84 2.827.957 6.117.301 8.407-.389 1.356-.245 1.841 1.183 3.962 4.024 5.981 4.197 15.009.434 22.682-2.616 5.335-6.995 8.325-14.602 9.972l-3.666.793 1.285 2.186c1.256 2.137 1.289 2.393 1.448 11.331.188 10.606.218 10.683 3.758 9.736 11.02-2.948 22.934-14.165 27.893-26.262 13.904-33.917-15.479-70.089-51.619-63.545m95.285 14.764c-12.914 2.943-19.818 12.665-21.429 30.178-1.662 18.059 3.597 32.034 14.133 37.558 9.427 4.944 24.833 4.99 35.269.107l2.976-1.393v-18.12-18.12h-12.143H150v6.428 6.429h4.762 4.762v6.896 6.895l-1.194.3c-3.233.812-11.358-.012-13.707-1.388-9.731-5.705-10.931-30.936-1.852-38.928 4.131-3.636 13.386-4.732 22.117-2.619 2.033.492 3.815.776 3.959.632.861-.861 2.912-11.591 2.333-12.204-2.511-2.661-20.349-4.359-27.843-2.651m97.363 2.221c-.128.334-.177 15.715-.109 34.179l.123 33.572h7.143H255l.126-14.653.126-14.652 9.874.129 9.874.128-.151 14.048c-.083 7.752.04 14.32.275 14.656.32.458 2.18.576 7.531.476l7.107-.132.122-33.519c.09-24.741-.021-33.692-.426-34.179-.43-.519-1.995-.632-7.265-.529l-6.717.132-.238 12.619L275 61.667l-9.873.128-9.873.129-.127-12.748L255 36.429l-7.034-.132c-5.365-.101-7.089.012-7.266.476m105.238 0c-.128.334-.177 15.715-.109 34.179l.123 33.572h5.196 5.196l.518-1.516.519-1.516 1.905 1.166c8.705 5.328 21.563 4.171 26.501-2.385 5.109-6.784 6.364-24.933 2.364-34.206-3.946-9.145-14.593-11.839-26.833-6.788-.767.316-.834-.472-.952-11.255l-.128-11.595-7.034-.132c-5.365-.101-7.089.012-7.266.476m-158.67 1.305c-5.787 1.392-8.168 8.76-4.267 13.204 4.514 5.141 12.376 3.37 14.142-3.186 1.556-5.78-4.012-11.428-9.875-10.018m21.78 13.485v6.8l-3.691.938-3.69.937v5 5l3.661.139 3.662.138.148 12.481c.229 19.348 2.539 22.48 16.576 22.48 8.836 0 8.64.147 8.469-6.335l-.135-5.093-3.936-.256c-3.475-.226-4.088-.409-5.238-1.558l-1.303-1.301-.152-10.229-.153-10.228h4.975c6.275 0 6.115.182 5.942-6.735l-.135-5.408-5.238-.238-5.239-.238-.132-6.547-.133-6.548h-7.129-7.129v6.801m-27.326 7.273c-.524 1.366-.335 44.006.2 45.005.634 1.186 13.256 1.427 14.215.271.389-.468.505-6.949.415-23.214l-.123-22.565-7.207-.131c-6.258-.114-7.245-.03-7.5.634m114.67-.104c-.96 2.503.074 37.295 1.174 39.512 4.045 8.147 16.233 10.401 27.565 5.098 3.695-1.729 3.246-1.728 3.845-.009l.498 1.429h4.787 4.787V81.429 58.095h-7.092c-6.028 0-7.136.113-7.381.753-.159.415-.289 8.016-.289 16.893V91.88l-1.526.789c-1.692.875-6.761 1.435-8.665.957-2.776-.697-2.882-1.344-3.143-19.08l-.238-16.213-7.034-.132c-5.66-.106-7.083-.002-7.288.531m75.833 11.04c4.904 3.213 4.682 21.489-.287 23.547-1.86.771-7.306.439-9.676-.59l-1.786-.776v-10.7-10.7l2.262-.722c1.244-.397 2.691-.829 3.214-.96 1.543-.384 5.089.125 6.273.901M28.095 87.381c0 .393.348.714.773.714.633 0 .665-.129.18-.714-.326-.393-.674-.714-.773-.714s-.18.321-.18.714M30 89.675c0 .889.777 1.471 1.152.863.146-.237-.053-.695-.443-1.019-.576-.478-.709-.449-.709.156m2.008 2.78c.118.352.596.714 1.062.805.543.105.772-.067.636-.476-.117-.353-.595-.715-1.062-.806-.543-.105-.772.067-.636.477m3.23 2.034c0 .442.407.749.992.749 1.161 0 .997-1.113-.198-1.344-.47-.091-.794.151-.794.595m7.738-.337c-.94.337-.693 1.086.357 1.086.524 0 .953-.202.953-.448 0-.61-.59-.897-1.31-.638m-3.644.484c-.573.573-.26 1.078.668 1.078.524 0 .952-.191.952-.425 0-.535-1.238-1.034-1.62-.653" fill-rule="evenodd"/></svg>