<svg xmlns="http://www.w3.org/2000/svg" viewBox="0 0 24 24"><path fill="#fca121" d="M4.845.904c-.435 0-.82.28-.955.692L.07 13.335a1.437 1.437 0 0 0 .522 1.607l11.07 8.045c.2.145.472.144.67-.004l11.073-8.04a1.436 1.436 0 0 0 .522-1.61L20.11 1.587a1.004 1.004 0 0 0-.957-.684.987.987 0 0 0-.949.69L15.8 9H8.203l-2.4-7.408a.987.987 0 0 0-.942-.69h-.006zm-.006 1.42l2.173 6.678H2.675zm14.326 0l2.168 6.678h-4.34zm-10.593 7.8h6.862L12 20.693 8.572 10.135zm-5.514.005h4.32l3.086 9.5zm13.567 0h4.325l-7.41 9.502 3.086-9.502zM2.1 10.762l6.977 8.947-7.817-5.682a.305.305 0 0 1-.112-.341zm19.798 0l.952 2.922a.305.305 0 0 1-.11.341v.002l-7.82 5.68.026-.035z"/></svg>
