<svg xmlns="http://www.w3.org/2000/svg" viewBox="0 0 256 302"><g fill="#27346a"><path d="M217.168 23.507C203.234 7.625 178.046.816 145.823.816h-93.52C45.7.816 40.108 5.6 39.076 12.11L.136 259.077c-.774 4.87 2.997 9.28 7.933 9.28h57.735l14.05-89.092c1.032-6.5 6.593-11.296 13.177-11.296h27.436c53.898 0 96.1-21.892 108.43-85.22.366-1.873.683-3.696.957-5.477-1.557-.824-1.557-.824 0 0 3.67-23.407-.025-39.34-12.686-53.765"/><path d="M102.397 68.84c1.54-.733 3.255-1.14 5.053-1.14h73.318c8.682 0 16.78.566 24.18 1.756a101.6 101.6 0 0 1 6.176 1.182 89.93 89.93 0 0 1 5.818 1.49c.94.275 1.865.558 2.772.857 3.638 1.215 7.025 2.63 10.14 4.287 3.67-23.415-.025-39.34-12.686-53.765C203.226 7.625 178.046.816 145.823.816h-93.53C45.7.816 40.108 5.6 39.076 12.11L.136 259.068c-.774 4.878 2.997 9.28 7.924 9.28h57.744L95.888 77.58c.616-3.912 3.13-7.117 6.51-8.74z"/></g><path d="M228.897 82.75c-12.328 63.32-54.53 85.22-108.43 85.22H93.024c-6.584 0-12.145 4.795-13.17 11.296L61.817 293.62a7.03 7.03 0 0 0 6.934 8.124h48.67a11.71 11.71 0 0 0 11.562-9.881l.474-2.48 9.173-58.135.59-3.213a11.71 11.71 0 0 1 11.562-9.881h7.284c47.147 0 84.064-19.154 94.852-74.55 4.503-23.15 2.173-42.477-9.74-56.054-3.613-4.112-8.1-7.508-13.327-10.28-.283 1.8-.59 3.604-.957 5.477h0z" fill="#2790c3"/><path d="M216.952 72.128l-5.818-1.5-6.176-1.174c-7.408-1.2-15.5-1.765-24.2-1.765h-73.3a11.57 11.57 0 0 0-5.053 1.149c-3.388 1.623-5.893 4.82-6.51 8.74L79.864 179.266c1.024-6.5 6.584-11.296 13.17-11.296h27.444c53.898 0 96.1-21.892 108.43-85.22.366-1.873.674-3.688.957-5.477-3.122-1.648-6.5-3.072-10.14-4.28a83.26 83.26 0 0 0-2.772-.866" fill="#1f264f"/></svg>
